<?xml version="1.0" encoding="utf-8"?>
<svg viewBox="0 0 276 76" fill="none" xmlns="http://www.w3.org/2000/svg">
  <path fill-rule="evenodd" clip-rule="evenodd" d="M26.7417 69.7935V48.0652C26.7417 45.7503 27.2675 43.5552 28.2036 41.5899C26.2389 42.5259 24.0423 43.0509 21.7283 43.0509L0 43.0516V32.9474H21.7283C23.0991 32.9474 24.351 32.3808 25.2634 31.4691C26.1752 30.5575 26.7417 29.3048 26.7417 27.9341V6.20557H36.8461V27.9341C36.8453 30.248 36.3203 32.4439 35.3842 34.4085C37.3489 33.4724 39.5455 32.9474 41.8594 32.9474H63.5878V43.0516H41.8594C40.4887 43.0516 39.2353 43.6183 38.3236 44.5292C37.4126 45.441 36.8461 46.6943 36.8467 48.0659V69.7943L26.7417 69.7935Z" fill="#0D34B4"/>
  <path fill-rule="evenodd" clip-rule="evenodd" d="M12.8855 11.9448L28.2493 27.3086C31.1826 30.2419 32.6503 34.1142 32.6513 37.9863V38.0137C32.6503 41.8859 31.1826 45.7582 28.2493 48.6915L12.8855 64.0551L5.73877 56.9084L21.1026 41.5446C22.0794 40.5678 22.5706 39.2824 22.5737 38.0002C22.5706 36.7178 22.0794 35.4326 21.1026 34.4557L5.73877 19.092L12.8855 11.9448Z" fill="url(#paint0_linear_251_1615)"/>
  <path fill-rule="evenodd" clip-rule="evenodd" d="M25.827 30.9375C25.827 35.9056 23.3892 40.3046 19.6442 43.0025L19.5942 43.0525L5.73926 56.9088L12.8854 64.0549L26.7417 50.1999L28.2499 48.6917C29.8897 47.052 31.0711 45.1199 31.7942 43.0581C32.3657 41.4305 32.6513 39.7223 32.6513 38.0133V37.9865C32.6513 36.2776 32.3656 34.5694 31.7942 32.9417C31.0711 30.8799 29.8897 28.948 28.2499 27.3081L26.7411 25.7993L22.4705 21.5293C24.5418 24.0591 25.795 27.285 25.8262 30.8024C25.827 30.8472 25.827 30.8927 25.827 30.9372V30.9375Z" fill="url(#paint1_linear_251_1615)"/>
  <path fill-rule="evenodd" clip-rule="evenodd" d="M25.827 30.9375C25.827 35.9056 23.3892 40.3046 19.6442 43.0025L19.5942 43.0525L5.73926 56.9088L12.8854 64.0549L26.7417 50.1999L28.2499 48.6917C29.8897 47.052 31.0711 45.1199 31.7942 43.0581C32.3657 41.4305 32.6513 39.7223 32.6513 38.0133V37.9865C32.6513 36.2776 32.3656 34.5694 31.7942 32.9417C31.0711 30.8799 29.8897 28.948 28.2499 27.3081L26.7411 25.7993L22.4705 21.5293C24.5418 24.0591 25.795 27.285 25.8262 30.8024C25.827 30.8472 25.827 30.8927 25.827 30.9372V30.9375Z" fill="url(#paint2_linear_251_1615)"/>
  <path fill-rule="evenodd" clip-rule="evenodd" d="M39.3958 52.7494L50.7021 64.0555L57.8488 56.9085L42.485 41.5447C41.5082 40.5678 41.017 39.2826 41.0138 38.0003C41.017 36.718 41.5082 35.4327 42.485 34.4557L43.9422 32.9985C40.1981 35.6966 37.7611 40.0952 37.7611 45.0624C37.7611 45.1072 37.7611 45.1528 37.7617 45.1975C37.7931 48.715 39.0461 51.941 41.1174 54.4707L39.3958 52.7494Z" fill="url(#paint3_linear_251_1615)"/>
  <path fill-rule="evenodd" clip-rule="evenodd" d="M37.7612 45.0621C37.7612 40.0942 40.1988 35.695 43.9438 32.9971L43.9937 32.9471L57.8487 19.091L50.7026 11.9448L36.8463 25.7998L35.3382 27.308C33.6983 28.9478 32.5169 30.8797 31.7939 32.9417C31.2223 34.5693 30.9366 36.2775 30.9366 37.9863V38.0132C30.9366 39.722 31.2224 41.4304 31.7939 43.058C32.5169 45.1197 33.6983 47.0517 35.3382 48.6917L36.847 50.2005L41.1174 54.4703C39.0461 51.9407 37.7932 48.7146 37.7618 45.1972C37.7612 45.1524 37.7612 45.1068 37.7612 45.0621Z" fill="url(#paint4_linear_251_1615)"/>
  <path fill-rule="evenodd" clip-rule="evenodd" d="M 231.185 16.233 L 231.185 57.931 L 253.589 57.931 C 266.291 57.931 276.212 49.456 276.212 37.16 C 276.212 24.98 266.291 16.233 253.59 16.233 L 231.185 16.233 Z M 240.832 49.712 L 240.832 24.594 C 240.832 24.594 248.608 24.594 253.59 24.594 C 259.8 24.594 266.654 29.659 266.654 37.206 C 266.654 46.187 259.753 49.712 253.59 49.712 C 248.608 49.712 240.832 49.712 240.832 49.712 Z" fill="#0D34B4" style=""/>
  <path d="M 121.97 57.931 L 131.632 57.931 L 131.632 31.498 L 145.363 57.931 L 155.174 57.931 L 168.003 31.498 L 168.003 57.931 L 177.656 57.931 L 177.656 16.233 L 166.02 16.233 L 150.268 48.515 L 133.658 16.233 L 121.97 16.233 L 121.97 57.931 Z" fill="#0D34B4" style=""/>
  <path d="M 183.066 16.233 L 226.22 16.233 L 226.22 23.956 L 192.713 23.956 L 192.713 32.573 L 221.411 32.573 L 221.411 40.202 L 192.713 40.202 L 192.713 50.6 L 226.22 50.6 L 226.22 57.931 L 183.066 57.931 L 183.066 16.233 Z" fill="#0D34B4" style=""/>
  <path fill-rule="evenodd" clip-rule="evenodd" d="M 71.892 16.233 L 71.892 57.931 L 94.297 57.931 C 106.998 57.931 116.92 49.456 116.92 37.16 C 116.92 24.98 106.998 16.233 94.297 16.233 L 71.892 16.233 Z M 81.54 49.712 L 81.54 24.594 C 81.54 24.594 89.315 24.594 94.297 24.594 C 100.507 24.594 107.361 29.659 107.361 37.206 C 107.361 46.187 100.461 49.712 94.297 49.712 C 89.315 49.712 81.54 49.712 81.54 49.712 Z" fill="#0D34B4" style=""/>
  <defs>
    <linearGradient id="paint0_linear_251_1615" x1="1.07015" y1="18.7944" x2="26.7239" y2="47.2765" gradientUnits="userSpaceOnUse">
      <stop stop-color="#008BFF"/>
      <stop offset="1" stop-color="#5FFFEC"/>
    </linearGradient>
    <linearGradient id="paint1_linear_251_1615" x1="5.16892" y1="49.4433" x2="28.4263" y2="23.7746" gradientUnits="userSpaceOnUse">
      <stop stop-color="#008BFF"/>
      <stop offset="1" stop-color="#5FFFEC"/>
    </linearGradient>
    <linearGradient id="paint2_linear_251_1615" x1="5.16892" y1="49.4433" x2="28.4263" y2="23.7746" gradientUnits="userSpaceOnUse">
      <stop stop-color="#5FFFEC"/>
      <stop offset="1" stop-color="#008BFF"/>
    </linearGradient>
    <linearGradient id="paint3_linear_251_1615" x1="39.743" y1="36.8642" x2="46.8513" y2="63.2931" gradientUnits="userSpaceOnUse">
      <stop stop-color="#5FFFEC"/>
      <stop offset="1" stop-color="#008BFF"/>
    </linearGradient>
    <linearGradient id="paint4_linear_251_1615" x1="30.3663" y1="39.8588" x2="53.6236" y2="14.19" gradientUnits="userSpaceOnUse">
      <stop stop-color="#008BFF"/>
      <stop offset="1" stop-color="#5FFFEC"/>
    </linearGradient>
  </defs>
</svg>