<?xml version="1.0" encoding="utf-8"?>
<svg xmlns="http://www.w3.org/2000/svg" viewBox="0 0 500 500">
  <defs>
    <linearGradient id="paint0_linear_251_1615" x1="1.07015" y1="18.7944" x2="26.7239" y2="47.2765" gradientUnits="userSpaceOnUse" gradientTransform="matrix(7.805027, 0, 0, 7.805027, 3.39424, -44.403682)">
      <stop stop-color="#008BFF"/>
      <stop offset="1" stop-color="#5FFFEC"/>
    </linearGradient>
    <linearGradient id="paint1_linear_251_1615" x1="5.16892" y1="49.4433" x2="28.4263" y2="23.7746" gradientUnits="userSpaceOnUse" gradientTransform="matrix(7.805027, 0, 0, 7.805027, 3.39424, -44.403682)">
      <stop stop-color="#008BFF"/>
      <stop offset="1" stop-color="#5FFFEC"/>
    </linearGradient>
    <linearGradient id="paint2_linear_251_1615" x1="5.16892" y1="49.4433" x2="28.4263" y2="23.7746" gradientUnits="userSpaceOnUse" gradientTransform="matrix(7.805027, 0, 0, 7.805027, 3.39424, -44.403682)">
      <stop stop-color="#5FFFEC"/>
      <stop offset="1" stop-color="#008BFF"/>
    </linearGradient>
    <linearGradient id="paint3_linear_251_1615" x1="39.743" y1="36.8642" x2="46.8513" y2="63.2931" gradientUnits="userSpaceOnUse" gradientTransform="matrix(7.805027, 0, 0, 7.805027, 3.39424, -44.403682)">
      <stop stop-color="#5FFFEC"/>
      <stop offset="1" stop-color="#008BFF"/>
    </linearGradient>
    <linearGradient id="paint4_linear_251_1615" x1="30.3663" y1="39.8588" x2="53.6236" y2="14.19" gradientUnits="userSpaceOnUse" gradientTransform="matrix(7.805027, 0, 0, 7.805027, 3.39424, -44.403682)">
      <stop stop-color="#008BFF"/>
      <stop offset="1" stop-color="#5FFFEC"/>
    </linearGradient>
  </defs>
  <path fill-rule="evenodd" clip-rule="evenodd" d="M 210.818 500.341 L 210.818 329.974 C 210.818 311.824 214.895 294.614 222.257 279.197 C 206.82 286.537 189.647 290.654 171.457 290.654 L 1.077 290.66 L 1.077 211.438 L 171.457 211.438 C 182.201 211.438 192.08 206.994 199.214 199.848 C 206.351 192.697 210.818 182.875 210.818 172.131 L 210.818 1.76 L 290.016 1.76 L 290.016 172.131 C 290.01 190.274 285.894 207.486 278.554 222.893 C 293.961 215.555 311.188 211.438 329.331 211.438 L 499.696 211.438 L 499.696 290.66 L 329.331 290.66 C 318.58 290.66 308.749 295.107 301.607 302.249 C 294.462 309.401 290.016 319.222 290.025 329.974 L 290.025 500.348 L 210.818 500.341 Z" fill="#0D34B4" style="stroke-width: 1;"/>
  <path fill-rule="evenodd" clip-rule="evenodd" d="M 103.959 48.828 L 223.876 168.743 C 246.774 191.635 258.223 221.863 258.232 252.085 L 258.232 252.297 C 258.223 282.516 246.774 312.747 223.876 335.637 L 103.959 455.555 L 48.152 399.77 L 168.116 279.854 C 175.766 272.23 179.589 262.2 179.589 252.193 C 179.589 242.181 175.766 232.151 168.116 224.525 L 48.152 104.617 L 103.959 48.828 Z" fill="url(#paint0_linear_251_1615)" style="stroke-width: 1;"/>
  <path fill-rule="evenodd" clip-rule="evenodd" d="M 204.954 197.068 C 204.954 235.842 185.91 270.177 156.72 291.235 L 156.329 291.626 L 48.152 399.77 L 103.959 455.547 L 212.135 347.406 L 223.882 335.637 C 236.685 322.844 245.899 307.757 251.541 291.673 C 256.006 278.965 258.232 265.635 258.232 252.297 L 258.232 252.085 C 258.232 238.747 256.006 225.414 251.541 212.711 C 245.899 196.614 236.685 181.543 223.882 168.743 L 212.135 156.966 L 178.808 123.637 C 194.965 143.386 204.72 168.562 204.954 196.014 C 204.954 196.366 204.954 196.716 204.954 197.068 Z" fill="url(#paint1_linear_251_1615)" style="stroke-width: 1;"/>
  <path fill-rule="evenodd" clip-rule="evenodd" d="M 204.954 197.068 C 204.954 235.842 185.91 270.177 156.72 291.235 L 156.329 291.626 L 48.152 399.77 L 103.959 455.547 L 212.135 347.406 L 223.882 335.637 C 236.685 322.844 245.899 307.757 251.541 291.673 C 256.006 278.965 258.232 265.635 258.232 252.297 L 258.232 252.085 C 258.232 238.747 256.006 225.414 251.541 212.711 C 245.899 196.614 236.685 181.543 223.882 168.743 L 212.135 156.966 L 178.808 123.637 C 194.965 143.386 204.72 168.562 204.954 196.014 C 204.954 196.366 204.954 196.716 204.954 197.068 Z" fill="url(#paint2_linear_251_1615)" style="stroke-width: 1;"/>
  <path fill-rule="evenodd" clip-rule="evenodd" d="M 310.878 367.312 L 399.121 455.555 L 454.903 399.77 L 334.985 279.854 C 327.361 272.23 323.529 262.2 323.505 252.193 C 323.529 242.19 327.361 232.151 334.985 224.525 L 346.358 213.153 C 317.137 234.213 298.116 268.546 298.116 307.314 C 298.116 307.664 298.116 308.016 298.123 308.369 C 298.366 335.825 308.146 361.004 324.319 380.743 L 310.878 367.312 Z" fill="url(#paint3_linear_251_1615)" style="stroke-width: 1;"/>
  <path fill-rule="evenodd" clip-rule="evenodd" d="M 298.116 307.314 C 298.116 268.538 317.145 234.202 346.374 213.146 L 346.763 212.757 L 454.903 104.61 L 399.128 48.828 L 290.974 156.966 L 279.204 168.743 C 266.403 181.535 257.188 196.614 251.541 212.711 C 247.079 225.414 244.853 238.747 244.853 252.085 L 244.853 252.297 C 244.853 265.635 247.085 278.965 251.541 291.673 C 257.188 307.757 266.403 322.837 279.204 335.637 L 290.982 347.415 L 324.319 380.743 C 308.146 360.998 298.366 335.817 298.123 308.369 C 298.116 308.016 298.116 307.656 298.116 307.314 Z" fill="url(#paint4_linear_251_1615)" style="stroke-width: 1;"/>
</svg>